<svg id="Layer_1" data-name="Layer 1" xmlns="http://www.w3.org/2000/svg" viewBox="0 0 150 60"><defs><style>.cls-1{fill:#a6ce39;}.cls-2{fill:#00accd;}.cls-3{fill:#faa619;}.cls-4{font-size:20px;font-family:BlackOpsOne-Regular, Black Ops One;}.cls-4,.cls-6{fill:#fff;}.cls-5{letter-spacing:-0.09em;}.cls-6{font-size:4.75px;font-family:MyriadHebrew-Regular, Myriad Hebrew;}.cls-7{letter-spacing:-0.07em;}.cls-8{letter-spacing:-0.01em;}.cls-9{letter-spacing:-0.01em;}.cls-10{letter-spacing:0.01em;}.cls-11{letter-spacing:0.02em;}.cls-12{letter-spacing:-0.04em;}.cls-13{letter-spacing:-0.03em;}.cls-14{letter-spacing:0em;}.cls-15{letter-spacing:0em;}.cls-16{letter-spacing:-0.05em;}</style></defs><title>Untitled-1</title><path class="cls-1" d="M30.38,45.73l-8.49-1.05c1,3.39,3.33,3.44,8.49,1.05"/><path class="cls-1" d="M18.13,38.26c.78,3.88,4.58,5.25,10.43,4l-10.43-4"/><path class="cls-1" d="M29.13,39.67c0-.14-.62-.77-1.06-1.15l-12-8.27c0,2.51.68,4.29,2.54,5.15,3,1.38,7.45,3,10.5,4.26"/><path class="cls-2" d="M31.35,35.4c.2-.1-.34-1.94-.37-2.31L25.45,12.51c-1.67,2.28-2.75,4.36-1.76,6.64C25.78,24,29.1,30.67,31.35,35.4"/><path class="cls-2" d="M19.47,27.7c2.73,2.6,7.6,6.64,10.48,9.1a17.55,17.55,0,0,0-1.49-2.1L19,21.38c-1,2.81-1,4.93.46,6.32"/><path class="cls-2" d="M34.44,33.62a48.29,48.29,0,0,1-3.2-11.73,52.88,52.88,0,0,1-.49-9.39,13.7,13.7,0,0,1,5.19-9.93c-1.6,9.09-1.51,31-1.51,31"/><path class="cls-3" d="M34.36,50.85,30.2,52.78c2.21,1.29,3,.89,4.15-1.94"/><path class="cls-3" d="M25.55,49.33c1.94,2.3,2.77,2.24,6.36-.59l-6.36.59"/><path class="cls-3" d="M33.75,54.83c2.27.58,2.76-.75,3.18-2.15l-3.18,2.15"/><text class="cls-4" transform="translate(34.57 50.84)"><tspan class="cls-5">T</tspan><tspan x="10.54" y="0">AC2019</tspan></text><text class="cls-6" transform="translate(38.41 55.75)"><tspan class="cls-7">T</tspan><tspan x="2.02" y="0">echnical </tspan><tspan class="cls-8" x="19.46" y="0">A</tspan><tspan class="cls-9" x="22.31" y="0">g</tspan><tspan x="24.94" y="0">ili</tspan><tspan class="cls-10" x="28.28" y="0">t</tspan><tspan class="cls-11" x="29.89" y="0">y</tspan><tspan x="32.24" y="0">: Business</tspan><tspan class="cls-12" x="51.57" y="0"> </tspan><tspan class="cls-13" x="52.41" y="0">V</tspan><tspan x="54.9" y="0">alu</tspan><tspan class="cls-8" x="60.92" y="0">e</tspan><tspan x="63.24" y="0">, </tspan><tspan class="cls-14" x="65.35" y="0">S</tspan><tspan class="cls-15" x="67.67" y="0">tabl</tspan><tspan class="cls-8" x="75.36" y="0">e</tspan><tspan x="77.68" y="0">, </tspan><tspan class="cls-16" x="79.79" y="0">F</tspan><tspan x="81.88" y="0">ast</tspan></text></svg>