<svg xmlns="http://www.w3.org/2000/svg" xmlns:xlink="http://www.w3.org/1999/xlink" viewBox="0 0 974.47 362.96"><defs><style>.cls-1{fill:none;}.cls-2{fill:#0254ad;}.cls-3{fill:#043299;}.cls-4{clip-path:url(#clip-path);}.cls-5{fill:#fcba39;}.cls-6{fill:#fcb939;}.cls-7{fill:#fbb839;}.cls-8{fill:#fbb739;}.cls-9{fill:#fab638;}.cls-10{fill:#fab538;}.cls-11{fill:#f9b438;}.cls-12{fill:#f9b338;}.cls-13{fill:#f8b238;}.cls-14{fill:#f8b138;}.cls-15{fill:#f7b037;}.cls-16{fill:#f7af37;}.cls-17{fill:#f6ae37;}.cls-18{fill:#f6ad37;}.cls-19{fill:#f6ac37;}.cls-20{fill:#f5ab37;}.cls-21{fill:#f5aa36;}.cls-22{fill:#f4a936;}.cls-23{fill:#f4a836;}.cls-24{fill:#f3a736;}.cls-25{fill:#f3a636;}.cls-26{fill:#f2a536;}.cls-27{fill:#f2a436;}.cls-28{fill:#f1a335;}.cls-29{fill:#f1a235;}.cls-30{fill:#f0a135;}.cls-31{fill:#f0a035;}.cls-32{fill:#f09f35;}.cls-33{fill:#ef9e35;}.cls-34{fill:#ef9d34;}.cls-35{fill:#ee9c34;}.cls-36{fill:#ee9b34;}.cls-37{fill:#ed9a34;}.cls-38{fill:#ed9934;}.cls-39{fill:#ec9834;}.cls-40{fill:#ec9733;}.cls-41{fill:#eb9633;}.cls-42{fill:#eb9533;}.cls-43{fill:#eb9433;}.cls-44{fill:#ea9233;}.cls-45{fill:#ea9133;}.cls-46{fill:#e99033;}.cls-47{fill:#e98f32;}.cls-48{fill:#e88e32;}.cls-49{fill:#e88d32;}.cls-50{fill:#e78c32;}.cls-51{fill:#e78b32;}.cls-52{fill:#e68a32;}.cls-53{clip-path:url(#clip-path-2);}.cls-54{fill:#000c74;}.cls-55{fill:#000d75;}.cls-56{fill:#000e76;}.cls-57{fill:#000f77;}.cls-58{fill:#001078;}.cls-59{fill:#001179;}.cls-60{fill:#01127a;}.cls-61{fill:#01137b;}.cls-62{fill:#01147c;}.cls-63{fill:#01157d;}.cls-64{fill:#01167e;}.cls-65{fill:#01187f;}.cls-66{fill:#011980;}.cls-67{fill:#011a81;}.cls-68{fill:#011b82;}.cls-69{fill:#011c83;}.cls-70{fill:#021d84;}.cls-71{fill:#021e85;}.cls-72{fill:#021f86;}.cls-73{fill:#022087;}.cls-74{fill:#022188;}.cls-75{fill:#022289;}.cls-76{fill:#02238a;}.cls-77{fill:#02248b;}.cls-78{fill:#02258c;}.cls-79{fill:#03268d;}.cls-80{fill:#03278e;}.cls-81{fill:#03288f;}.cls-82{fill:#032990;}.cls-83{fill:#032b92;}.cls-84{fill:#032c93;}.cls-85{fill:#032d94;}.cls-86{fill:#032e95;}.cls-87{fill:#042f96;}.cls-88{fill:#043097;}.cls-89{fill:#043198;}.cls-90{fill:#077ae2;}.cls-91{clip-path:url(#clip-path-3);}.cls-92{fill:#050c6d;}.cls-93{fill:#050d6e;}.cls-94{fill:#050e6f;}.cls-95{fill:#050f70;}.cls-96{fill:#051071;}.cls-97{fill:#051072;}.cls-98{fill:#051173;}.cls-99{fill:#051274;}.cls-100{fill:#051375;}.cls-101{fill:#051476;}.cls-102{fill:#051577;}.cls-103{fill:#051678;}.cls-104{fill:#051779;}.cls-105{fill:#05177a;}.cls-106{fill:#05187b;}.cls-107{fill:#05197c;}.cls-108{fill:#051a7d;}.cls-109{fill:#051b7e;}.cls-110{fill:#051c7f;}.cls-111{fill:#051d80;}.cls-112{fill:#051e81;}.cls-113{fill:#051f82;}.cls-114{fill:#041f84;}.cls-115{fill:#042085;}.cls-116{fill:#042186;}.cls-117{fill:#042287;}.cls-118{fill:#042388;}.cls-119{fill:#042489;}.cls-120{fill:#04258a;}.cls-121{fill:#04268b;}.cls-122{fill:#04278c;}.cls-123{fill:#04278d;}.cls-124{fill:#04288e;}.cls-125{fill:#04298f;}.cls-126{fill:#042a90;}.cls-127{fill:#042b91;}.cls-128{fill:#042c92;}.cls-129{fill:#042d93;}.cls-130{fill:#042e94;}.cls-131{fill:#042e95;}.cls-132{clip-path:url(#clip-path-4);}.cls-133{fill:#060c87;}.cls-134{fill:#060d88;}.cls-135{fill:#060e88;}.cls-136{fill:#060f89;}.cls-137{fill:#061089;}.cls-138{fill:#06118a;}.cls-139{fill:#06128a;}.cls-140{fill:#06138b;}.cls-141{fill:#06148b;}.cls-142{fill:#06158c;}.cls-143{fill:#05168c;}.cls-144{fill:#05178d;}.cls-145{fill:#05188d;}.cls-146{fill:#05198e;}.cls-147{fill:#051a8e;}.cls-148{fill:#051b8f;}.cls-149{fill:#051c8f;}.cls-150{fill:#051d90;}.cls-151{fill:#051e90;}.cls-152{fill:#051f91;}.cls-153{fill:#052092;}.cls-154{fill:#052192;}.cls-155{fill:#052293;}.cls-156{fill:#052393;}.cls-157{fill:#052494;}.cls-158{fill:#052594;}.cls-159{fill:#052695;}.cls-160{fill:#052795;}.cls-161{fill:#052896;}.cls-162{fill:#042a96;}.cls-163{fill:#042b97;}.cls-164{fill:#042c97;}.cls-165{fill:#042d98;}.cls-166{fill:#042e98;}.cls-167{fill:#042f99;}.cls-168{fill:#043099;}.cls-169{fill:#04319a;}.cls-170{fill:#04329a;}.cls-171{fill:#04339b;}.cls-172{fill:#04349c;}.cls-173{fill:#04359c;}.cls-174{fill:#04369d;}.cls-175{fill:#04379d;}.cls-176{fill:#04389e;}.cls-177{fill:#04399e;}.cls-178{fill:#043a9f;}.cls-179{fill:#043b9f;}.cls-180{fill:#043ca0;}.cls-181{fill:#033da0;}.cls-182{fill:#033ea1;}.cls-183{fill:#033fa1;}.cls-184{fill:#0340a2;}.cls-185{fill:#0341a2;}.cls-186{fill:#0342a3;}.cls-187{fill:#0343a3;}.cls-188{fill:#0344a4;}.cls-189{fill:#0345a4;}.cls-190{fill:#0346a5;}.cls-191{fill:#0347a6;}.cls-192{fill:#0348a6;}.cls-193{fill:#0349a7;}.cls-194{fill:#034aa7;}.cls-195{fill:#034ba8;}.cls-196{fill:#034ca9;}.cls-197{fill:#024ea9;}.cls-198{fill:#024faa;}.cls-199{fill:#0250ab;}.cls-200{fill:#0251ab;}.cls-201{fill:#0252ac;}.cls-202{fill:#0253ac;}.cls-203{isolation:isolate;}</style><clipPath id="clip-path"><path class="cls-1" d="M315.76,101c-14.48-60.58-42.23-61.86-56.9-63H259c-13.35-2.63-37.48,2.43-65.57,14.27C156.05,72.93,133,88.42,116.12,103a89.48,89.48,0,0,1-3.7-13.25c-.35-1.76-.63-3.53-.87-5.3,68-53.4,155.38-79.15,185.2-70.24C309,30.63,315.67,62.34,315.76,101Z"/></clipPath><clipPath id="clip-path-2"><path class="cls-1" d="M116.67,298c-68.82-3.76-87.24-34.87-76.48-81.8-6.35,31.6,55.17,50,66.82,48.32-3.36,8,9.66,33.48,9.66,33.48"/></clipPath><clipPath id="clip-path-3"><path class="cls-1" d="M148.84,20.34q10.17,2.73,20.76,6.2a444.65,444.65,0,0,0-42.3,23.18c-24-4.31-42.33-3.35-49.55,3l-.28.24a18.9,18.9,0,0,0-4.34,6.09C78,45.16,86.47,18.65,148.84,20.34Z"/></clipPath><clipPath id="clip-path-4"><path class="cls-1" d="M279.68,284l-.09.21c-8,17.15-27,31.44-51.09,36.17a83.8,83.8,0,0,1-20.36,1.47c.51-.05,1-.07,1.51-.16l.35-.08c8.22-1.6,18.41-12.39,28.4-29.45,12.38-1.93,24.28-4.33,35.58-7.14C275.89,284.67,277.8,284.34,279.68,284Z"/></clipPath></defs><title>TAI</title><g id="Layer_2" data-name="Layer 2"><g id="Layer_1-2" data-name="Layer 1"><g id="Layer_1-2-2" data-name="Layer 1-2"><path class="cls-2" d="M307.16,184.72c-.28,2.28-.6,4.57-1,6.9-15,86.38-54.29,164.21-88.37,170.6-9.71,2-22-1.29-35.73-8.7,17.81-8.33,32.7-23.51,43.87-43.48,7.53-8.68,15.47-21.8,22.84-38.08C258.46,254,283.65,178,282.6,100.74c-.93-30.94-7.13-53.7-16.43-60l-.3-.2C255.8,33.82,229.22,37.69,197,50.8a171.18,171.18,0,0,0-24.07-25.33c50.29-23.69,96.31-32.7,116.2-19.1C316.53,24.49,323.32,103.69,307.16,184.72Z"/><path class="cls-3" d="M326.45,219.69l.12-.36c4.07-11.86-7.47-37.9-30-66.91C226.29,79.53,204.93,76.58,150.4,55.06c-35.07-9.72-63.25-10.55-72.65-2.35l-.28.24c-6.31,5.5-9.74,19.94-9.85,39.72A400.53,400.53,0,0,0,36,120.85C29.87,74.08,34.2,35.6,50.45,21.68,74.58.26,150.31,13.25,223.12,48.26,316.3,95,378.3,197.41,365.63,232.92c-8.17,22.89-50.53,43.86-105.65,55.32A447.41,447.41,0,0,0,285,247C307.94,238.76,323.34,228.75,326.45,219.69Z"/><g class="cls-4"><polygon class="cls-5" points="221.86 5.27 111.55 59.2 111.55 5.27 221.86 5.27"/><polygon class="cls-5" points="228.09 5.27 111.55 62.25 111.55 59.2 221.86 5.27 228.09 5.27"/><polygon class="cls-6" points="234.32 5.27 111.55 65.29 111.55 62.25 228.09 5.27 234.32 5.27"/><polygon class="cls-7" points="240.54 5.27 111.55 68.34 111.55 65.29 234.32 5.27 240.54 5.27"/><polygon class="cls-8" points="246.77 5.27 111.55 71.38 111.55 68.34 240.54 5.27 246.77 5.27"/><polygon class="cls-9" points="253 5.27 111.55 74.42 111.55 71.38 246.77 5.27 253 5.27"/><polygon class="cls-10" points="259.23 5.27 111.55 77.47 111.55 74.42 253 5.27 259.23 5.27"/><polygon class="cls-11" points="265.45 5.27 111.55 80.51 111.55 77.47 259.23 5.27 265.45 5.27"/><polygon class="cls-12" points="271.68 5.27 111.55 83.56 111.55 80.51 265.45 5.27 271.68 5.27"/><polygon class="cls-13" points="277.91 5.27 111.55 86.6 111.55 83.56 271.68 5.27 277.91 5.27"/><polygon class="cls-14" points="284.14 5.27 111.55 89.65 111.55 86.6 277.91 5.27 284.14 5.27"/><polygon class="cls-15" points="290.36 5.27 111.55 92.69 111.55 89.65 284.14 5.27 290.36 5.27"/><polygon class="cls-16" points="296.59 5.27 111.55 95.74 111.55 92.69 290.36 5.27 296.59 5.27"/><polygon class="cls-17" points="298.83 5.27 299.6 6.84 111.78 98.67 111.55 98.18 111.55 95.74 296.59 5.27 298.83 5.27"/><rect class="cls-18" x="101.76" y="52.62" width="209.06" height="2.74" transform="translate(-2.75 96.09) rotate(-26.05)"/><polygon class="cls-19" points="300.8 9.3 302 11.76 115.43 102.97 113.89 102.97 112.98 101.12 300.8 9.3"/><polygon class="cls-20" points="302 11.76 303.2 14.22 121.66 102.97 115.43 102.97 302 11.76"/><polygon class="cls-21" points="303.2 14.22 304.4 16.67 127.89 102.97 121.66 102.97 303.2 14.22"/><polygon class="cls-22" points="304.4 16.67 305.61 19.13 134.12 102.97 127.89 102.97 304.4 16.67"/><polygon class="cls-23" points="305.61 19.13 306.81 21.59 140.34 102.97 134.12 102.97 305.61 19.13"/><polygon class="cls-24" points="306.81 21.59 308.01 24.05 146.57 102.97 140.34 102.97 306.81 21.59"/><polygon class="cls-25" points="308.01 24.05 309.21 26.5 152.8 102.97 146.57 102.97 308.01 24.05"/><polygon class="cls-26" points="309.21 26.5 310.41 28.96 159.03 102.97 152.8 102.97 309.21 26.5"/><polygon class="cls-27" points="310.41 28.96 311.61 31.42 165.25 102.97 159.03 102.97 310.41 28.96"/><polygon class="cls-28" points="311.61 31.42 312.81 33.87 171.48 102.97 165.25 102.97 311.61 31.42"/><polygon class="cls-29" points="312.81 33.87 314.01 36.33 177.71 102.97 171.48 102.97 312.81 33.87"/><polygon class="cls-30" points="314.01 36.33 315.21 38.79 183.94 102.97 177.71 102.97 314.01 36.33"/><polygon class="cls-31" points="315.21 38.79 315.76 39.9 315.76 41.57 190.16 102.97 183.94 102.97 315.21 38.79"/><polygon class="cls-32" points="315.76 44.61 196.39 102.97 190.16 102.97 315.76 41.57 315.76 44.61"/><polygon class="cls-33" points="315.76 47.66 202.62 102.97 196.39 102.97 315.76 44.61 315.76 47.66"/><polygon class="cls-34" points="315.76 50.7 208.84 102.97 202.62 102.97 315.76 47.66 315.76 50.7"/><polygon class="cls-35" points="315.76 53.75 215.07 102.97 208.84 102.97 315.76 50.7 315.76 53.75"/><polygon class="cls-36" points="315.76 56.79 221.3 102.97 215.07 102.97 315.76 53.75 315.76 56.79"/><polygon class="cls-37" points="315.76 59.84 227.53 102.97 221.3 102.97 315.76 56.79 315.76 59.84"/><polygon class="cls-38" points="315.76 62.88 233.75 102.97 227.53 102.97 315.76 59.84 315.76 62.88"/><polygon class="cls-39" points="315.76 65.92 239.98 102.97 233.75 102.97 315.76 62.88 315.76 65.92"/><polygon class="cls-40" points="315.76 68.97 246.21 102.97 239.98 102.97 315.76 65.92 315.76 68.97"/><polygon class="cls-41" points="315.76 72.01 252.44 102.97 246.21 102.97 315.76 68.97 315.76 72.01"/><polygon class="cls-42" points="315.76 75.06 258.67 102.97 252.44 102.97 315.76 72.01 315.76 75.06"/><polygon class="cls-43" points="315.76 78.1 264.89 102.97 258.67 102.97 315.76 75.06 315.76 78.1"/><polygon class="cls-44" points="315.76 81.15 271.12 102.97 264.89 102.97 315.76 78.1 315.76 81.15"/><polygon class="cls-45" points="315.76 84.19 277.35 102.97 271.12 102.97 315.76 81.15 315.76 84.19"/><polygon class="cls-46" points="315.76 87.24 283.57 102.97 277.35 102.97 315.76 84.19 315.76 87.24"/><polygon class="cls-47" points="315.76 90.28 289.8 102.97 283.57 102.97 315.76 87.24 315.76 90.28"/><polygon class="cls-48" points="315.76 93.33 296.03 102.97 289.8 102.97 315.76 90.28 315.76 93.33"/><polygon class="cls-49" points="315.76 96.37 302.26 102.97 296.03 102.97 315.76 93.33 315.76 96.37"/><polygon class="cls-50" points="315.76 99.42 308.48 102.97 302.26 102.97 315.76 96.37 315.76 99.42"/><polygon class="cls-51" points="315.76 102.46 314.71 102.97 308.48 102.97 315.76 99.42 315.76 102.46"/><polygon class="cls-52" points="314.71 102.97 315.76 102.46 315.76 102.97 314.71 102.97"/></g><path class="cls-3" d="M315.64,111.06v1.57c-.1,3.33-.24,6.69-.43,10.1a451.08,451.08,0,0,0-33.32-34.84c-2.06-24.29-7.73-41.76-15.69-47.11l-.3-.2a13.21,13.21,0,0,0-1.85-1l-.81-.35-1-.37-.18-.06a25.44,25.44,0,0,0-2.94-.77h-.07c-.71-.13-1.47-.24-2.25-.34l-.59-.07c-.74-.09-1.51-.14-2.31-.18h-4.08a24.28,24.28,0,0,0-2.67.1H247c-1.79.1-3.68.32-5.62.57-.61.08-1.21.14-1.83.24l-2,.33c-.81.13-1.62.28-2.46.43l-1.84.37c-1,.2-2,.42-3,.65l-1.57.35c-1.28.31-2.59.64-3.91,1l-.87.22a227.58,227.58,0,0,0-22.66,7.49h0c-2,.78-4.05,1.6-6.13,2.46q8.76,4.38,17.55,9.21c61.56,35,111.11,94.78,133.9,139,4.32-3.57,8.45-7.21,12.24-11,7.9,17.78,10.71,33.22,6.86,44.15-5.61,16.84-30,32.47-64.19,44.14l-1,.34-6.05,2-1.72.54c-2,.61-4.05,1.22-6.12,1.81l-1.4.41c-2.47.69-5,1.36-7.51,2l-2.16.53q-2.72.69-5.48,1.33l-3.21.74-4.68,1-2.11.46h0a451.15,451.15,0,0,1-62,8.34c-2.26.3-4.54.58-6.89.8-66.79,6-132.37-3-166.24-21.56l-.26-.14a61.07,61.07,0,0,1-16-12.06l-.13-.15A33.93,33.93,0,0,1,6,260.35a.62.62,0,0,1-.11-.17,27.73,27.73,0,0,1-2.37-3.95c-8-16-1.7-44.44,14.41-77.07a71.63,71.63,0,0,0,3.58,10.68c14.47-25.07,36-53.3,61.76-80.14a300.5,300.5,0,0,1,28.35-25.13.06.06,0,0,1,0-.06c1.28-1,2.59-2,3.89-3l1.4-1.17c-1.79,1.34-3.56,2.69-5.32,4.07a89.83,89.83,0,0,1-.1-23.11q7.85-6.06,16-11.55c-24-4.31-42.42-3.35-49.65,3l-.28.24c-6.31,5.5-9.74,19.94-9.85,39.72-9.78,7.84-18.87,15.89-27.25,24-1.49,1.26-3,2.5-4.43,3.74-6-46.19-1.81-84.11,14-98.34C65.5,9.34,106.44,15,154.16,33.41c57-31.19,115-41.21,134.92-27a36.19,36.19,0,0,1,7.67,7.81c-1-.3-2.09-.56-3.22-.78,1.13.22,2.21.48,3.22.78h0l.38.08C310.47,32,316.81,68.07,315.64,111.06ZM283.7,12.47c1.27,0,2.5.08,3.68.15a85.67,85.67,0,0,0-9.48,0c1.22-.06,2.41-.08,3.56-.09C282.22,12.47,283,12.46,283.7,12.47Zm-13.65.73,1.76-.16c1.32-.14,2.62-.25,3.9-.34q-5.43.36-11.53,1.29c2-.31,4-.58,5.87-.79Zm-7.58,1.07.94-.15c-2.12.33-4.31.72-6.54,1.15l.47-.1c1.74-.32,3.45-.63,5.13-.9Zm-6.88,1.24c-4.92,1-10.08,2.21-15.44,3.67l1-.27c5-1.33,9.85-2.47,14.44-3.4Zm-23.2,5.88c2.54-.77,5-1.48,7.49-2.14-2.51.67-5,1.4-7.64,2.18Zm-.27.07c-5.55,1.68-11.28,3.6-17.13,5.73,5.85-2.13,11.58-4.05,17.13-5.73ZM61.58,168.22C50.52,187,43.23,204.11,40.3,217.34c-.22.94-.41,1.88-.57,2.79a5.85,5.85,0,0,1-.12.71,47.24,47.24,0,0,0-.75,7.12v1.43a10.7,10.7,0,0,0,.06,1.37c.06.46.07,1,.12,1.48s.1.77.16,1.13c.09.53.2,1,.32,1.52.07.29.13.58.21.85a14.17,14.17,0,0,0,.8,2.08l.16.34a12.51,12.51,0,0,0,1,1.69l.38.52a13.24,13.24,0,0,0,1,1.2c.16.18.31.36.48.54a17.59,17.59,0,0,0,1.63,1.58l.51.42c.46.39.94.78,1.46,1.16l.94.69c.42.29.86.59,1.31.88l1.11.72c.53.33,1.1.65,1.67,1s1.45.8,2.21,1.19l1.14.59,1.89.9.95.43c2.42,1.07,5.05,2.12,7.86,3.11l.31.11,3.1,1.05h0c2.18.71,4.47,1.39,6.84,2h0a220.12,220.12,0,0,0,22.16,4.78c86.45,3.56,135.55-5.66,174.15-11.63,4.28-1.29,8.34-2.64,12.21-4h0a156,156,0,0,0,22.33-9.88h.08c1-.56,2-1.13,2.94-1.69l.08-.06a68.32,68.32,0,0,0,7.5-5.16l.09-.06c.49-.4.94-.81,1.39-1.2.29-.25.58-.5.85-.75s.72-.69,1.07-1a12.59,12.59,0,0,0,.89-.92c.28-.3.56-.63.82-.94l.83-1a9.48,9.48,0,0,0,.62-.85c.19-.28.51-.8.74-1.19.13-.22.28-.45.39-.68a15.43,15.43,0,0,0,.82-1.86l.12-.36a14,14,0,0,0,.6-2.56h0a21.62,21.62,0,0,0,.19-2.9c0-13.38-11.25-36.28-30.79-61.43C236.88,90.71,212.46,79.24,173.07,64,103.33,104.71,93.59,125,61.58,168.22Zm91.73-112c-9.1,5.29-18.12,11-26.92,17.23,2.56-1.8,5.13-3.55,7.72-5.28l1.24-.82q8.88-5.85,18-11.12ZM117.2,80.09q4-3.06,8.2-6l.65-.45Q121.58,76.81,117.2,80.09Zm60.33-36.87h0q9.42-4.63,18.68-8.59l.25-.11q9.09-3.87,17.9-7.1A381,381,0,0,0,177.53,43.22Zm110.8-30.5c.34,0,.68.06,1,.09.82.08,1.6.18,2.36.29l.48.08c-1.17-.2-2.49-.35-3.84-.46Z"/><path class="cls-2" d="M315.17,122.73a451.08,451.08,0,0,0-33.32-34.84c-2.06-24.29-7.73-41.76-15.69-47.11l-.3-.2c-10.42-7-38.56-2.62-72.41,11.66C125,90.13,104.45,110.61,82.5,139.7c-5.11,6.8-10.34,14.09-16.24,22.15l-4.68,6.37c-9,15.28-15.53,29.51-19.22,41.4h0c-3.89,12.51-4.66,22.43-1.84,28.17l.16.34c3.68,7.51,16.73,14.56,35.8,19.8a402.62,402.62,0,0,0,19,37.83c-46.72-6.17-82.78-20.33-92-39.62-11.83-23.66,7.65-74.8,44.07-126.26a.71.71,0,0,0,.1-.14q2.79-3.93,5.71-7.86l.6-.81q3-4,6.14-8.06c.09-.11.18-.21.26-.32q2.85-3.64,5.79-7.24c.46-.56.91-1.12,1.38-1.67,2.08-2.53,4.17-5,6.33-7.54.27-.32.57-.62.85-.93h0C144,18.07,260.57-13.14,289.08,6.34,309.37,19.77,318.36,66.54,315.17,122.73Z"/><g class="cls-53"><polygon class="cls-54" points="29.43 249.07 71.23 297.95 29.43 297.95 29.43 249.07"/><polygon class="cls-54" points="29.43 247.26 72.78 297.95 71.23 297.95 29.43 249.07 29.43 247.26"/><polygon class="cls-55" points="29.43 245.44 74.34 297.95 72.78 297.95 29.43 247.26 29.43 245.44"/><polygon class="cls-56" points="29.43 243.62 75.89 297.95 74.34 297.95 29.43 245.44 29.43 243.62"/><polygon class="cls-57" points="29.43 241.8 77.45 297.95 75.89 297.95 29.43 243.62 29.43 241.8"/><polygon class="cls-58" points="29.43 239.98 79 297.95 77.45 297.95 29.43 241.8 29.43 239.98"/><polygon class="cls-59" points="29.43 238.16 80.56 297.95 79 297.95 29.43 239.98 29.43 238.16"/><polygon class="cls-60" points="29.43 236.34 82.12 297.95 80.56 297.95 29.43 238.16 29.43 236.34"/><polygon class="cls-61" points="29.43 234.53 83.67 297.95 82.12 297.95 29.43 236.34 29.43 234.53"/><polygon class="cls-62" points="29.43 232.71 85.23 297.95 83.67 297.95 29.43 234.53 29.43 232.71"/><polygon class="cls-63" points="29.43 230.89 86.78 297.95 85.23 297.95 29.43 232.71 29.43 230.89"/><polygon class="cls-64" points="29.43 229.07 88.34 297.95 86.78 297.95 29.43 230.89 29.43 229.07"/><polygon class="cls-65" points="29.43 227.25 89.89 297.95 88.34 297.95 29.43 229.07 29.43 227.25"/><polygon class="cls-66" points="29.43 225.43 91.45 297.95 89.89 297.95 29.43 227.25 29.43 225.43"/><polygon class="cls-67" points="29.43 223.61 93 297.95 91.45 297.95 29.43 225.43 29.43 223.61"/><polygon class="cls-68" points="29.43 222.72 29.88 222.33 94.56 297.95 93 297.95 29.43 223.61 29.43 222.72"/><polygon class="cls-69" points="29.88 222.33 30.78 221.56 96.11 297.95 94.56 297.95 29.88 222.33"/><polygon class="cls-70" points="30.78 221.56 31.68 220.79 97.67 297.95 96.11 297.95 30.78 221.56"/><polygon class="cls-71" points="31.68 220.79 32.58 220.02 99.23 297.95 97.67 297.95 31.68 220.79"/><polygon class="cls-72" points="32.58 220.02 33.48 219.26 100.78 297.95 99.23 297.95 32.58 220.02"/><polygon class="cls-73" points="33.48 219.26 34.38 218.49 102.34 297.95 100.78 297.95 33.48 219.26"/><polygon class="cls-74" points="34.38 218.49 35.27 217.72 103.89 297.95 102.34 297.95 34.38 218.49"/><polygon class="cls-75" points="35.27 217.72 36.17 216.95 105.45 297.95 103.89 297.95 35.27 217.72"/><polygon class="cls-75" points="36.17 216.95 37.11 216.15 37.46 216.15 107.42 297.95 105.45 297.95 36.17 216.95"/><polygon class="cls-76" points="39.44 216.15 109.4 297.95 107.42 297.95 37.46 216.15 39.44 216.15"/><polygon class="cls-77" points="41.41 216.15 111.37 297.95 109.4 297.95 39.44 216.15 41.41 216.15"/><polygon class="cls-78" points="43.38 216.15 113.35 297.95 111.37 297.95 41.41 216.15 43.38 216.15"/><polygon class="cls-79" points="45.36 216.15 115.32 297.95 113.35 297.95 43.38 216.15 45.36 216.15"/><polygon class="cls-80" points="47.33 216.15 116.67 297.22 116.67 297.95 115.32 297.95 45.36 216.15 47.33 216.15"/><polygon class="cls-81" points="49.31 216.15 116.67 294.91 116.67 297.22 47.33 216.15 49.31 216.15"/><polygon class="cls-82" points="51.28 216.15 116.67 292.6 116.67 294.91 49.31 216.15 51.28 216.15"/><polygon class="cls-83" points="53.26 216.15 116.67 290.29 116.67 292.6 51.28 216.15 53.26 216.15"/><polygon class="cls-84" points="55.23 216.15 116.67 287.98 116.67 290.29 53.26 216.15 55.23 216.15"/><polygon class="cls-85" points="57.2 216.15 116.67 285.67 116.67 287.98 55.23 216.15 57.2 216.15"/><polygon class="cls-86" points="59.18 216.15 116.67 283.37 116.67 285.67 57.2 216.15 59.18 216.15"/><polygon class="cls-87" points="61.15 216.15 116.67 281.06 116.67 283.37 59.18 216.15 61.15 216.15"/><polygon class="cls-88" points="63.13 216.15 116.67 278.75 116.67 281.06 61.15 216.15 63.13 216.15"/><polygon class="cls-89" points="65.1 216.15 116.67 276.44 116.67 278.75 63.13 216.15 65.1 216.15"/><polygon class="cls-3" points="67.08 216.15 116.67 274.13 116.67 276.44 65.1 216.15 67.08 216.15"/><polygon class="cls-3" points="116.67 274.13 67.08 216.15 116.67 216.15 116.67 274.13"/></g><path class="cls-90" d="M150.16,20.75q4.14,1.13,8.34,2.37l1.55.46q4.74,1.43,9.55,3a444.65,444.65,0,0,0-42.3,23.18c-24-4.31-42.33-3.35-49.55,3l-.28.24C68,61.21,65,89.52,70,125.92c24.41,98.24,41.43,111.49,77.9,157.42,25.48,26,49.5,40.77,61.75,38.37l.35-.08c8.22-1.6,18.41-12.39,28.4-29.45,3.27-.51,6.49-1.06,9.7-1.63,2-.36,4-.75,6-1.13l3.2-.62q3.81-.78,7.53-1.6l1-.22c2.77-.62,5.51-1.26,8.22-1.94h.11c1.93-.47,3.89-.94,5.78-1.44-18.06,43.58-41.06,74.74-62.09,78.68-31.6,6.47-90.7-42.66-136.25-109.38C24.26,165.9,22.26,45.2,50.51,21.74A35.17,35.17,0,0,1,60,16.24c.06-.09.11-.21.17-.3,19-7.71,51.83-5.49,89.37,4.64Z"/><g class="cls-91"><polygon class="cls-92" points="73.13 56.59 75.23 59.05 73.13 59.05 73.13 56.59"/><polygon class="cls-92" points="73.13 53.3 78.05 59.05 75.23 59.05 73.13 56.59 73.13 53.3"/><polygon class="cls-93" points="73.13 50 80.87 59.05 78.05 59.05 73.13 53.3 73.13 50"/><polygon class="cls-94" points="73.13 46.7 83.69 59.05 80.87 59.05 73.13 50 73.13 46.7"/><polygon class="cls-95" points="73.13 43.4 86.51 59.05 83.69 59.05 73.13 46.7 73.13 43.4"/><polygon class="cls-96" points="73.13 40.11 89.33 59.05 86.51 59.05 73.13 43.4 73.13 40.11"/><polygon class="cls-97" points="73.13 36.81 92.15 59.05 89.33 59.05 73.13 40.11 73.13 36.81"/><polygon class="cls-98" points="73.13 33.51 94.97 59.05 92.15 59.05 73.13 36.81 73.13 33.51"/><polygon class="cls-99" points="73.13 30.21 97.79 59.05 94.97 59.05 73.13 33.51 73.13 30.21"/><polygon class="cls-100" points="73.13 27.43 73.38 27.21 100.61 59.05 97.79 59.05 73.13 30.21 73.13 27.43"/><polygon class="cls-101" points="73.38 27.21 75.01 25.82 103.43 59.05 100.61 59.05 73.38 27.21"/><polygon class="cls-102" points="75.01 25.82 76.64 24.43 106.25 59.05 103.43 59.05 75.01 25.82"/><polygon class="cls-103" points="76.64 24.43 78.26 23.03 109.07 59.05 106.25 59.05 76.64 24.43"/><polygon class="cls-104" points="78.26 23.03 79.89 21.64 111.89 59.05 109.07 59.05 78.26 23.03"/><polygon class="cls-105" points="79.89 21.64 81.52 20.25 114.71 59.05 111.89 59.05 79.89 21.64"/><polygon class="cls-106" points="81.52 20.25 83.15 18.85 117.53 59.05 114.71 59.05 81.52 20.25"/><polygon class="cls-107" points="83.15 18.85 83.39 18.65 85.8 18.65 120.35 59.05 117.53 59.05 83.15 18.85"/><polygon class="cls-108" points="88.61 18.65 123.17 59.05 120.35 59.05 85.8 18.65 88.61 18.65"/><polygon class="cls-109" points="91.44 18.65 125.99 59.05 123.17 59.05 88.61 18.65 91.44 18.65"/><polygon class="cls-110" points="94.25 18.65 128.81 59.05 125.99 59.05 91.44 18.65 94.25 18.65"/><polygon class="cls-111" points="97.08 18.65 131.63 59.05 128.81 59.05 94.25 18.65 97.08 18.65"/><polygon class="cls-112" points="99.89 18.65 134.45 59.05 131.63 59.05 97.08 18.65 99.89 18.65"/><polygon class="cls-113" points="102.72 18.65 136.17 57.76 134.66 59.05 134.45 59.05 99.89 18.65 102.72 18.65"/><polygon class="cls-114" points="105.53 18.65 137.79 56.37 136.17 57.76 102.72 18.65 105.53 18.65"/><polygon class="cls-115" points="108.36 18.65 139.42 54.98 137.79 56.37 105.53 18.65 108.36 18.65"/><polygon class="cls-116" points="111.17 18.65 141.05 53.58 139.42 54.98 108.36 18.65 111.17 18.65"/><polygon class="cls-117" points="114 18.65 142.68 52.19 141.05 53.58 111.17 18.65 114 18.65"/><polygon class="cls-118" points="116.81 18.65 144.31 50.8 142.68 52.19 114 18.65 116.81 18.65"/><polygon class="cls-119" points="119.64 18.65 145.94 49.41 144.31 50.8 116.81 18.65 119.64 18.65"/><polygon class="cls-120" points="122.45 18.65 147.57 48.01 145.94 49.41 119.64 18.65 122.45 18.65"/><polygon class="cls-121" points="125.28 18.65 149.2 46.62 147.57 48.01 122.45 18.65 125.28 18.65"/><polygon class="cls-122" points="128.09 18.65 150.82 45.23 149.2 46.62 125.28 18.65 128.09 18.65"/><polygon class="cls-123" points="130.91 18.65 152.45 43.83 150.82 45.23 128.09 18.65 130.91 18.65"/><polygon class="cls-124" points="133.74 18.65 154.08 42.44 152.45 43.83 130.91 18.65 133.74 18.65"/><polygon class="cls-125" points="136.56 18.65 155.71 41.05 154.08 42.44 133.74 18.65 136.56 18.65"/><polygon class="cls-126" points="139.38 18.65 157.34 39.66 155.71 41.05 136.56 18.65 139.38 18.65"/><polygon class="cls-127" points="142.19 18.65 158.97 38.26 157.34 39.66 139.38 18.65 142.19 18.65"/><polygon class="cls-128" points="145.01 18.65 160.6 36.87 158.97 38.26 142.19 18.65 145.01 18.65"/><polygon class="cls-129" points="147.84 18.65 162.22 35.48 160.6 36.87 145.01 18.65 147.84 18.65"/><polygon class="cls-130" points="150.65 18.65 163.85 34.08 162.22 35.48 147.84 18.65 150.65 18.65"/><polygon class="cls-131" points="153.47 18.65 165.48 32.69 163.85 34.08 150.65 18.65 153.47 18.65"/><polygon class="cls-87" points="156.29 18.65 167.11 31.3 165.48 32.69 153.47 18.65 156.29 18.65"/><polygon class="cls-88" points="159.11 18.65 168.74 29.9 167.11 31.3 156.29 18.65 159.11 18.65"/><polygon class="cls-89" points="161.93 18.65 169.6 27.61 169.6 29.17 168.74 29.9 159.11 18.65 161.93 18.65"/><polygon class="cls-3" points="164.75 18.65 169.6 24.31 169.6 27.61 161.93 18.65 164.75 18.65"/><polygon class="cls-3" points="169.6 24.31 164.75 18.65 169.6 18.65 169.6 24.31"/></g><g class="cls-132"><polygon class="cls-133" points="208.14 315.39 222.33 303.25 238.51 322.17 208.14 322.17 208.14 315.39"/><polygon class="cls-133" points="222.33 303.25 222.93 302.74 239.55 322.17 238.51 322.17 222.33 303.25"/><polygon class="cls-134" points="222.93 302.74 223.53 302.22 240.59 322.17 239.55 322.17 222.93 302.74"/><polygon class="cls-135" points="223.53 302.22 224.13 301.71 241.63 322.17 240.59 322.17 223.53 302.22"/><polygon class="cls-136" points="224.13 301.71 224.73 301.2 242.66 322.17 241.63 322.17 224.13 301.71"/><polygon class="cls-137" points="224.73 301.2 225.33 300.68 243.7 322.17 242.66 322.17 224.73 301.2"/><polygon class="cls-138" points="225.33 300.68 225.93 300.17 244.74 322.17 243.7 322.17 225.33 300.68"/><polygon class="cls-139" points="225.93 300.17 226.53 299.66 245.78 322.17 244.74 322.17 225.93 300.17"/><polygon class="cls-140" points="226.53 299.66 227.13 299.14 246.82 322.17 245.78 322.17 226.53 299.66"/><polygon class="cls-141" points="227.13 299.14 227.73 298.63 247.86 322.17 246.82 322.17 227.13 299.14"/><polygon class="cls-142" points="227.73 298.63 228.33 298.12 248.9 322.17 247.86 322.17 227.73 298.63"/><polygon class="cls-143" points="228.33 298.12 228.93 297.61 249.94 322.17 248.9 322.17 228.33 298.12"/><polygon class="cls-144" points="228.93 297.61 229.53 297.09 250.7 321.84 250.31 322.17 249.94 322.17 228.93 297.61"/><rect class="cls-145" x="240.02" y="292.93" width="0.79" height="32.56" transform="translate(-143.27 230.48) rotate(-40.54)"/><rect class="cls-146" x="240.62" y="292.41" width="0.79" height="32.56" transform="translate(-142.79 230.75) rotate(-40.54)"/><rect class="cls-147" x="241.22" y="291.9" width="0.79" height="32.56" transform="translate(-142.31 231.02) rotate(-40.54)"/><rect class="cls-148" x="241.82" y="291.39" width="0.79" height="32.56" transform="translate(-141.83 231.28) rotate(-40.54)"/><rect class="cls-149" x="242.42" y="290.87" width="0.79" height="32.56" transform="translate(-141.36 231.55) rotate(-40.54)"/><rect class="cls-150" x="243.02" y="290.36" width="0.79" height="32.56" transform="translate(-140.88 231.82) rotate(-40.54)"/><rect class="cls-151" x="243.62" y="289.85" width="0.79" height="32.56" transform="translate(-140.4 232.08) rotate(-40.54)"/><rect class="cls-152" x="244.22" y="289.33" width="0.79" height="32.56" transform="translate(-139.92 232.35) rotate(-40.54)"/><rect class="cls-153" x="244.82" y="288.82" width="0.79" height="32.56" transform="translate(-139.45 232.62) rotate(-40.54)"/><rect class="cls-154" x="245.42" y="288.31" width="0.79" height="32.56" transform="translate(-138.97 232.88) rotate(-40.54)"/><rect class="cls-155" x="246.02" y="287.79" width="0.79" height="32.56" transform="translate(-138.49 233.15) rotate(-40.54)"/><rect class="cls-156" x="246.62" y="287.28" width="0.79" height="32.56" transform="translate(-138.01 233.42) rotate(-40.54)"/><rect class="cls-157" x="247.22" y="286.77" width="0.79" height="32.56" transform="translate(-137.54 233.68) rotate(-40.54)"/><rect class="cls-158" x="247.82" y="286.25" width="0.79" height="32.56" transform="translate(-137.06 233.95) rotate(-40.54)"/><rect class="cls-159" x="248.42" y="285.74" width="0.79" height="32.56" transform="translate(-136.58 234.22) rotate(-40.54)"/><rect class="cls-160" x="249.02" y="285.23" width="0.79" height="32.56" transform="translate(-136.1 234.49) rotate(-40.54)"/><rect class="cls-161" x="249.62" y="284.71" width="0.79" height="32.56" transform="translate(-135.62 234.75) rotate(-40.54)"/><rect class="cls-162" x="250.22" y="284.2" width="0.79" height="32.56" transform="translate(-135.15 235.02) rotate(-40.54)"/><rect class="cls-163" x="250.82" y="283.69" width="0.79" height="32.56" transform="translate(-134.67 235.29) rotate(-40.54)"/><rect class="cls-164" x="251.42" y="283.17" width="0.79" height="32.56" transform="translate(-134.19 235.55) rotate(-40.54)"/><rect class="cls-165" x="252.02" y="282.66" width="0.79" height="32.56" transform="translate(-133.71 235.82) rotate(-40.54)"/><rect class="cls-166" x="252.62" y="282.15" width="0.79" height="32.56" transform="translate(-133.24 236.09) rotate(-40.54)"/><rect class="cls-167" x="253.22" y="281.63" width="0.79" height="32.56" transform="translate(-132.76 236.35) rotate(-40.54)"/><rect class="cls-168" x="253.82" y="281.12" width="0.79" height="32.56" transform="translate(-132.28 236.62) rotate(-40.54)"/><rect class="cls-169" x="254.42" y="280.61" width="0.79" height="32.56" transform="translate(-131.8 236.89) rotate(-40.54)"/><polygon class="cls-170" points="244.53 284.26 244.86 283.98 245.33 283.98 266.3 308.49 265.7 309.01 244.53 284.26"/><polygon class="cls-171" points="246.37 283.98 266.9 307.98 266.3 308.49 245.33 283.98 246.37 283.98"/><polygon class="cls-172" points="247.41 283.98 267.5 307.47 266.9 307.98 246.37 283.98 247.41 283.98"/><polygon class="cls-173" points="248.45 283.98 268.1 306.95 267.5 307.47 247.41 283.98 248.45 283.98"/><polygon class="cls-174" points="249.49 283.98 268.7 306.44 268.1 306.95 248.45 283.98 249.49 283.98"/><polygon class="cls-175" points="250.53 283.98 269.3 305.93 268.7 306.44 249.49 283.98 250.53 283.98"/><polygon class="cls-176" points="251.57 283.98 269.9 305.41 269.3 305.93 250.53 283.98 251.57 283.98"/><polygon class="cls-177" points="252.61 283.98 270.5 304.9 269.9 305.41 251.57 283.98 252.61 283.98"/><polygon class="cls-178" points="253.65 283.98 271.1 304.39 270.5 304.9 252.61 283.98 253.65 283.98"/><polygon class="cls-179" points="254.69 283.98 271.7 303.87 271.1 304.39 253.65 283.98 254.69 283.98"/><polygon class="cls-180" points="255.72 283.98 272.3 303.36 271.7 303.87 254.69 283.98 255.72 283.98"/><polygon class="cls-181" points="256.76 283.98 272.9 302.85 272.3 303.36 255.72 283.98 256.76 283.98"/><polygon class="cls-182" points="257.8 283.98 273.5 302.33 272.9 302.85 256.76 283.98 257.8 283.98"/><polygon class="cls-183" points="258.84 283.98 274.1 301.82 273.5 302.33 257.8 283.98 258.84 283.98"/><polygon class="cls-184" points="259.88 283.98 274.7 301.31 274.1 301.82 258.84 283.98 259.88 283.98"/><polygon class="cls-185" points="260.92 283.98 275.3 300.8 274.7 301.31 259.88 283.98 260.92 283.98"/><polygon class="cls-186" points="261.96 283.98 275.9 300.28 275.3 300.8 260.92 283.98 261.96 283.98"/><polygon class="cls-187" points="263 283.98 276.5 299.77 275.9 300.28 261.96 283.98 263 283.98"/><polygon class="cls-188" points="264.04 283.98 277.1 299.25 276.5 299.77 263 283.98 264.04 283.98"/><polygon class="cls-189" points="265.08 283.98 277.7 298.74 277.1 299.25 264.04 283.98 265.08 283.98"/><polygon class="cls-190" points="266.12 283.98 278.3 298.23 277.7 298.74 265.08 283.98 266.12 283.98"/><polygon class="cls-190" points="267.15 283.98 278.9 297.71 278.3 298.23 266.12 283.98 267.15 283.98"/><polygon class="cls-191" points="268.19 283.98 279.5 297.2 278.9 297.71 267.15 283.98 268.19 283.98"/><polygon class="cls-192" points="269.23 283.98 279.68 296.19 279.68 297.05 279.5 297.2 268.19 283.98 269.23 283.98"/><polygon class="cls-193" points="270.27 283.98 279.68 294.98 279.68 296.19 269.23 283.98 270.27 283.98"/><polygon class="cls-194" points="271.31 283.98 279.68 293.76 279.68 294.98 270.27 283.98 271.31 283.98"/><polygon class="cls-195" points="272.35 283.98 279.68 292.55 279.68 293.76 271.31 283.98 272.35 283.98"/><polygon class="cls-196" points="273.39 283.98 279.68 291.33 279.68 292.55 272.35 283.98 273.39 283.98"/><polygon class="cls-197" points="274.43 283.98 279.68 290.12 279.68 291.33 273.39 283.98 274.43 283.98"/><polygon class="cls-198" points="275.47 283.98 279.68 288.9 279.68 290.12 274.43 283.98 275.47 283.98"/><polygon class="cls-199" points="276.51 283.98 279.68 287.69 279.68 288.9 275.47 283.98 276.51 283.98"/><polygon class="cls-200" points="277.55 283.98 279.68 286.47 279.68 287.69 276.51 283.98 277.55 283.98"/><polygon class="cls-201" points="278.58 283.98 279.68 285.26 279.68 286.47 277.55 283.98 278.58 283.98"/><polygon class="cls-202" points="279.62 283.98 279.68 284.04 279.68 285.26 278.58 283.98 279.62 283.98"/><polygon class="cls-2" points="279.68 284.04 279.62 283.98 279.68 283.98 279.68 284.04"/></g><g class="cls-203"><g class="cls-203"><path class="cls-90" d="M525.24,14.61H499.53V.71h66.71v13.9H540.53V81.78H525.24Z"/></g><g class="cls-203"><path class="cls-90" d="M573.3,58.27c.93,7.06,7.07,12.16,17,12.16,5.21,0,12-2,15.29-5.33l9,8.92c-6,6.25-15.87,9.27-24.55,9.27-19.69,0-31.39-12.17-31.39-30.46,0-17.38,11.81-29.88,30.34-29.88,19.11,0,31,11.81,28.84,35.32Zm31-11.7c-.92-7.41-6.72-11.12-14.82-11.12-7.65,0-13.9,3.71-16,11.12Z"/></g><g class="cls-203"><path class="cls-90" d="M675.8,74.48a29.37,29.37,0,0,1-22,9c-16.56,0-30.34-10-30.34-30.23s13.78-30.23,30.34-30.23c8.11,0,14.36,2.32,20.62,8.46l-8.92,9.38A17.36,17.36,0,0,0,654,36.38c-9.5,0-16.45,6.95-16.45,16.91C637.58,64.18,645,70,653.79,70a17.18,17.18,0,0,0,12.51-4.75Z"/></g><g class="cls-203"><path class="cls-90" d="M694.78.71V32.44c5.09-6.6,11.35-8.57,17.83-8.57,16.22,0,23.4,11,23.4,27.8V81.78H721.88v-30c0-10.42-5.44-14.82-13-14.82-8.34,0-14.13,7.06-14.13,15.63V81.78H680.65V.71Z"/></g><g class="cls-203"><path class="cls-90" d="M788.78,81.78V51.9c0-8.69-4.75-15.29-13.78-15.29-8.69,0-14.6,7.3-14.6,16V81.78h-14V24.57H759l.93,7.76c5.79-5.68,11.58-8.57,18.76-8.57,13.44,0,24.21,10.07,24.21,28v30Z"/></g><g class="cls-203"><path class="cls-90" d="M828.64,8.59c0,11-16.68,11-16.68,0S828.64-2.42,828.64,8.59Zm-15.4,15.86V81.78h14.13V24.45Z"/></g><g class="cls-203"><path class="cls-90" d="M887.37,74.48a29.37,29.37,0,0,1-22,9c-16.56,0-30.34-10-30.34-30.23s13.78-30.23,30.34-30.23c8.11,0,14.36,2.32,20.62,8.46l-8.92,9.38a17.36,17.36,0,0,0-11.46-4.52c-9.5,0-16.45,6.95-16.45,16.91,0,10.89,7.41,16.68,16.21,16.68a17.18,17.18,0,0,0,12.51-4.75Z"/></g><g class="cls-203"><path class="cls-90" d="M936.17,24.68h13.55v57.1H936.4l-.69-8.34c-3.24,6.72-12.16,10-18.53,10.08-16.91.11-29.42-10.31-29.42-30.35,0-19.68,13.09-30,29.77-29.88,7.64,0,14.94,3.59,18.18,9.27ZM901.89,53.17c0,10.89,7.53,17.38,16.91,17.38,22.24,0,22.24-34.63,0-34.63C909.42,35.92,901.89,42.29,901.89,53.17Z"/></g><g class="cls-203"><path class="cls-90" d="M974.47.83v81h-14V.83Z"/></g></g><g class="cls-203"><g class="cls-203"><path class="cls-90" d="M566.49,205.24H524.1l-7,15.29H500.59L537,139.46h16.68L590,220.53H573.32ZM545.3,156.49,530.24,191h30.11Z"/></g><g class="cls-203"><path class="cls-90" d="M636.33,157.64l10.42,7.88-6.37,8.11c4.4,5,6,10.65,6,16.9,0,7.07-2.66,17-12,21.31,9.5,4.75,11.81,11.59,11.81,18.88,0,15.75-12,25.48-28.6,25.48s-29-10.07-29-25.48h14c0,7.41,6.83,12.28,14.94,12.28S632,238.6,632,230.72s-7.41-11.46-14.47-11.46c-17.84,0-29-10.89-29-28.73s13-28.95,29-28.95c4.51,0,9.15.58,13.08,3.24Zm-33.7,32.89c0,10,6.71,15.87,14.94,15.87s14.82-6,14.82-15.87-6.72-16.09-14.82-16.09S602.63,180.57,602.63,190.53Z"/></g><g class="cls-203"><path class="cls-90" d="M670.1,147.34c0,11-16.68,11-16.68,0S670.1,136.33,670.1,147.34ZM654.7,163.2v57.33h14.13V163.2Z"/></g><g class="cls-203"><path class="cls-90" d="M693.85,139.58v80.95h-14V139.58Z"/></g><g class="cls-203"><path class="cls-90" d="M720.12,147.34c0,11-16.68,11-16.68,0S720.12,136.33,720.12,147.34Zm-15.4,15.86v57.33h14.13V163.2Z"/></g><g class="cls-203"><path class="cls-90" d="M749.16,147.34v16.21h15.75v12.16H749v24.67c0,5.44,3,8.1,7.42,8.1a16.18,16.18,0,0,0,6.83-1.73l3.94,12a31.53,31.53,0,0,1-11.7,2.43c-12.39.47-20.5-6.6-20.5-20.84V175.71H724.38V163.55H735V148.84Z"/></g><g class="cls-203"><path class="cls-90" d="M832,163.43l-34.86,81H781.6l10.65-24.79-22.81-56.17h16.44l8.69,24.67L800,204.2l5.91-15.75,10.42-25Z"/></g></g><g class="cls-203"><g class="cls-203"><path class="cls-90" d="M503.08,361V279.92h15.17V361Z"/></g><g class="cls-203"><path class="cls-90" d="M572.74,361V331.11c0-8.69-4.75-15.29-13.78-15.29-8.69,0-14.59,7.3-14.59,16V361h-14V303.78H543l.93,7.76c5.79-5.68,11.58-8.57,18.76-8.57,13.44,0,24.21,10.07,24.21,28v30Z"/></g><g class="cls-203"><path class="cls-90" d="M633.68,319.07c-4-3.83-8.68-5.1-14.13-5.1-6.72,0-10.42,2.09-10.42,5.67s3.36,5.8,10.65,6.26c10.77.69,24.44,3.13,24.44,18.3,0,10.07-8.22,18.76-24.55,18.76-9,0-18.07-1.51-26.41-10.19l7-10.08c4,4.52,13.32,7.88,19.69,8,5.33.12,10.31-2.66,10.31-6.83,0-3.94-3.25-5.56-11.35-6-10.77-.81-23.63-4.75-23.63-17.72,0-13.2,13.67-17.84,24.09-17.84,8.92,0,15.64,1.74,22.24,7.53Z"/></g><g class="cls-203"><path class="cls-90" d="M671.52,287.8V304h15.75v12.16H671.4v24.67c0,5.44,3,8.11,7.42,8.11a16.19,16.19,0,0,0,6.83-1.74l3.94,12a31.75,31.75,0,0,1-11.7,2.44c-12.39.46-20.5-6.61-20.5-20.85V316.17H646.73V304h10.66V289.3Z"/></g><g class="cls-203"><path class="cls-90" d="M710.76,287.8c0,11-16.68,11-16.68,0S710.76,276.79,710.76,287.8Zm-15.4,15.86V361h14.13V303.66Z"/></g><g class="cls-203"><path class="cls-90" d="M739.79,287.8V304h15.75v12.16H739.67v24.67c0,5.44,3,8.11,7.42,8.11a16.19,16.19,0,0,0,6.83-1.74l3.94,12a31.75,31.75,0,0,1-11.7,2.44c-12.39.46-20.5-6.61-20.5-20.85V316.17H715V304h10.66V289.3Z"/></g><g class="cls-203"><path class="cls-90" d="M776.89,303.89v29.88c0,8.69,4.74,15.29,13.78,15.29,8.68,0,14.59-7.3,14.59-16V303.89h14v57.22H806.65l-.93-7.76c-5.9,5.79-11.35,8.57-19.34,8.57-13.66,0-23.62-10.31-23.62-28v-30Z"/></g><g class="cls-203"><path class="cls-90" d="M849.6,287.8V304h15.75v12.16H849.48v24.67c0,5.44,3,8.11,7.42,8.11a16.19,16.19,0,0,0,6.83-1.74l3.94,12a31.75,31.75,0,0,1-11.7,2.44c-12.39.46-20.5-6.61-20.5-20.85V316.17H824.81V304h10.66V289.3Z"/></g><g class="cls-203"><path class="cls-90" d="M884,337.48c.93,7.07,7.07,12.16,17,12.16,5.21,0,12-2,15.29-5.33l9,8.92c-6,6.25-15.87,9.27-24.55,9.27-19.69,0-31.39-12.16-31.39-30.46,0-17.38,11.81-29.88,30.34-29.88,19.11,0,31,11.81,28.84,35.32Zm31-11.7c-.93-7.41-6.72-11.12-14.82-11.12-7.65,0-13.9,3.71-16,11.12Z"/></g></g></g></g></g></svg>